<mxfile host="app.diagrams.net" modified="2022-05-17T12:10:17.019Z" agent="5.0 (Windows)" etag="HOSp0oy8jWrYFJ8pKQKB" version="18.0.6" type="github" pages="2">
  <diagram id="zFso1iWpa41dBefnqY7l" name="DB_1">
    <mxGraphModel dx="1422" dy="780" grid="0" gridSize="10" guides="1" tooltips="1" connect="1" arrows="1" fold="1" page="1" pageScale="1" pageWidth="850" pageHeight="1100" math="0" shadow="0">
      <root>
        <mxCell id="0" />
        <mxCell id="1" parent="0" />
        <mxCell id="jp7qgxSA2ZsEi85-9uxM-19" style="edgeStyle=orthogonalEdgeStyle;rounded=0;orthogonalLoop=1;jettySize=auto;html=1;entryX=0.5;entryY=1;entryDx=0;entryDy=0;" parent="1" source="jp7qgxSA2ZsEi85-9uxM-14" target="jp7qgxSA2ZsEi85-9uxM-16" edge="1">
          <mxGeometry relative="1" as="geometry" />
        </mxCell>
        <mxCell id="jp7qgxSA2ZsEi85-9uxM-20" style="edgeStyle=orthogonalEdgeStyle;rounded=0;orthogonalLoop=1;jettySize=auto;html=1;entryX=0.5;entryY=0;entryDx=0;entryDy=0;" parent="1" source="jp7qgxSA2ZsEi85-9uxM-14" target="jp7qgxSA2ZsEi85-9uxM-12" edge="1">
          <mxGeometry relative="1" as="geometry" />
        </mxCell>
        <mxCell id="jp7qgxSA2ZsEi85-9uxM-25" style="edgeStyle=orthogonalEdgeStyle;rounded=0;orthogonalLoop=1;jettySize=auto;html=1;fontColor=#FFFFFF;dashed=1;" parent="1" source="jp7qgxSA2ZsEi85-9uxM-14" edge="1">
          <mxGeometry relative="1" as="geometry">
            <mxPoint x="664" y="310.5" as="targetPoint" />
          </mxGeometry>
        </mxCell>
        <mxCell id="jp7qgxSA2ZsEi85-9uxM-14" value="MongoDB" style="rounded=0;whiteSpace=wrap;html=1;dashed=1;strokeColor=#1A1A1A;fillColor=#1A1A1A;fontColor=#FFFFFF;" parent="1" vertex="1">
          <mxGeometry x="341" y="238" width="192" height="145" as="geometry" />
        </mxCell>
        <mxCell id="jp7qgxSA2ZsEi85-9uxM-17" style="edgeStyle=orthogonalEdgeStyle;rounded=0;orthogonalLoop=1;jettySize=auto;html=1;entryX=0.5;entryY=1;entryDx=0;entryDy=0;" parent="1" source="jp7qgxSA2ZsEi85-9uxM-12" target="jp7qgxSA2ZsEi85-9uxM-14" edge="1">
          <mxGeometry relative="1" as="geometry" />
        </mxCell>
        <mxCell id="jp7qgxSA2ZsEi85-9uxM-12" value="Visual" style="rounded=0;whiteSpace=wrap;html=1;" parent="1" vertex="1">
          <mxGeometry x="377" y="490" width="120" height="60" as="geometry" />
        </mxCell>
        <mxCell id="jp7qgxSA2ZsEi85-9uxM-18" style="edgeStyle=orthogonalEdgeStyle;rounded=0;orthogonalLoop=1;jettySize=auto;html=1;entryX=0.5;entryY=0;entryDx=0;entryDy=0;" parent="1" source="jp7qgxSA2ZsEi85-9uxM-16" target="jp7qgxSA2ZsEi85-9uxM-14" edge="1">
          <mxGeometry relative="1" as="geometry" />
        </mxCell>
        <mxCell id="jp7qgxSA2ZsEi85-9uxM-16" value="Myonardo" style="rounded=0;whiteSpace=wrap;html=1;" parent="1" vertex="1">
          <mxGeometry x="377" y="69" width="120" height="60" as="geometry" />
        </mxCell>
        <mxCell id="jp7qgxSA2ZsEi85-9uxM-21" value="Read/Write" style="text;html=1;strokeColor=none;fillColor=none;align=center;verticalAlign=middle;whiteSpace=wrap;rounded=0;dashed=1;" parent="1" vertex="1">
          <mxGeometry x="455" y="169" width="60" height="30" as="geometry" />
        </mxCell>
        <mxCell id="jp7qgxSA2ZsEi85-9uxM-22" value="Read/Write" style="text;html=1;strokeColor=none;fillColor=none;align=center;verticalAlign=middle;whiteSpace=wrap;rounded=0;dashed=1;" parent="1" vertex="1">
          <mxGeometry x="320" y="403" width="60" height="30" as="geometry" />
        </mxCell>
        <mxCell id="jp7qgxSA2ZsEi85-9uxM-26" value="other Apps" style="rounded=0;whiteSpace=wrap;html=1;" parent="1" vertex="1">
          <mxGeometry x="664" y="280.5" width="120" height="60" as="geometry" />
        </mxCell>
        <mxCell id="jp7qgxSA2ZsEi85-9uxM-27" value="Read" style="text;html=1;strokeColor=none;fillColor=none;align=center;verticalAlign=middle;whiteSpace=wrap;rounded=0;dashed=1;" parent="1" vertex="1">
          <mxGeometry x="569" y="280.5" width="60" height="30" as="geometry" />
        </mxCell>
        <mxCell id="rnUT3yR5gCjnReZnTHq0-1" value="Myonardo Pro" style="rounded=0;whiteSpace=wrap;html=1;" parent="1" vertex="1">
          <mxGeometry x="192" y="490" width="120" height="60" as="geometry" />
        </mxCell>
        <mxCell id="rnUT3yR5gCjnReZnTHq0-3" value="" style="endArrow=classic;startArrow=classic;html=1;rounded=0;fontColor=#000000;exitX=0.45;exitY=-0.017;exitDx=0;exitDy=0;exitPerimeter=0;entryX=0.5;entryY=1;entryDx=0;entryDy=0;" parent="1" source="rnUT3yR5gCjnReZnTHq0-1" target="jp7qgxSA2ZsEi85-9uxM-14" edge="1">
          <mxGeometry width="50" height="50" relative="1" as="geometry">
            <mxPoint x="330" y="358" as="sourcePoint" />
            <mxPoint x="380" y="308" as="targetPoint" />
            <Array as="points">
              <mxPoint x="246" y="439" />
              <mxPoint x="437" y="439" />
            </Array>
          </mxGeometry>
        </mxCell>
      </root>
    </mxGraphModel>
  </diagram>
  <diagram id="wNw6dXiggP768uena-eM" name="Mongo_DB">
    <mxGraphModel dx="1673" dy="918" grid="0" gridSize="10" guides="1" tooltips="1" connect="1" arrows="1" fold="1" page="1" pageScale="1" pageWidth="850" pageHeight="1100" math="0" shadow="0">
      <root>
        <mxCell id="0" />
        <mxCell id="1" parent="0" />
        <mxCell id="Rpazg1jltuSnN0Y31uOU-15" value="" style="rounded=0;whiteSpace=wrap;html=1;fontColor=#000000;strokeColor=#1A1A1A;fillColor=#FFFFFF;dashed=1;" vertex="1" parent="1">
          <mxGeometry x="30" y="342" width="825" height="277" as="geometry" />
        </mxCell>
        <mxCell id="Rpazg1jltuSnN0Y31uOU-21" style="edgeStyle=orthogonalEdgeStyle;rounded=0;orthogonalLoop=1;jettySize=auto;html=1;entryX=0.5;entryY=0;entryDx=0;entryDy=0;entryPerimeter=0;fontColor=#000000;" edge="1" parent="1" source="Rpazg1jltuSnN0Y31uOU-14" target="Rpazg1jltuSnN0Y31uOU-1">
          <mxGeometry relative="1" as="geometry">
            <Array as="points">
              <mxPoint x="443" y="298" />
              <mxPoint x="138" y="298" />
            </Array>
          </mxGeometry>
        </mxCell>
        <mxCell id="Rpazg1jltuSnN0Y31uOU-22" style="edgeStyle=orthogonalEdgeStyle;rounded=0;orthogonalLoop=1;jettySize=auto;html=1;entryX=0.5;entryY=0;entryDx=0;entryDy=0;entryPerimeter=0;fontColor=#000000;" edge="1" parent="1" source="Rpazg1jltuSnN0Y31uOU-14" target="Rpazg1jltuSnN0Y31uOU-5">
          <mxGeometry relative="1" as="geometry">
            <Array as="points">
              <mxPoint x="442" y="298" />
              <mxPoint x="322" y="298" />
            </Array>
          </mxGeometry>
        </mxCell>
        <mxCell id="Rpazg1jltuSnN0Y31uOU-23" style="edgeStyle=orthogonalEdgeStyle;rounded=0;orthogonalLoop=1;jettySize=auto;html=1;fontColor=#000000;" edge="1" parent="1" source="Rpazg1jltuSnN0Y31uOU-14" target="Rpazg1jltuSnN0Y31uOU-6">
          <mxGeometry relative="1" as="geometry">
            <Array as="points">
              <mxPoint x="442" y="298" />
              <mxPoint x="513" y="298" />
            </Array>
          </mxGeometry>
        </mxCell>
        <mxCell id="Rpazg1jltuSnN0Y31uOU-14" value="" style="rounded=0;whiteSpace=wrap;html=1;fontColor=#000000;strokeColor=#1A1A1A;fillColor=#FFFFFF;dashed=1;" vertex="1" parent="1">
          <mxGeometry x="319.5" y="55" width="246" height="134" as="geometry" />
        </mxCell>
        <mxCell id="Rpazg1jltuSnN0Y31uOU-1" value="&lt;div&gt;PredimoMainDB&lt;/div&gt;" style="shape=cylinder3;whiteSpace=wrap;html=1;boundedLbl=1;backgroundOutline=1;size=15;fontColor=#000000;strokeColor=#1A1A1A;fillColor=#FFFFFF;" vertex="1" parent="1">
          <mxGeometry x="79" y="409" width="118.5" height="158" as="geometry" />
        </mxCell>
        <mxCell id="Rpazg1jltuSnN0Y31uOU-5" value="Customer1DB" style="shape=cylinder3;whiteSpace=wrap;html=1;boundedLbl=1;backgroundOutline=1;size=15;fontColor=#000000;strokeColor=#1A1A1A;fillColor=#FFFFFF;" vertex="1" parent="1">
          <mxGeometry x="263" y="409" width="118.5" height="158" as="geometry" />
        </mxCell>
        <mxCell id="Rpazg1jltuSnN0Y31uOU-6" value="PTrainerDB" style="shape=cylinder3;whiteSpace=wrap;html=1;boundedLbl=1;backgroundOutline=1;size=15;fontColor=#000000;strokeColor=#1A1A1A;fillColor=#FFFFFF;" vertex="1" parent="1">
          <mxGeometry x="454" y="409" width="118.5" height="158" as="geometry" />
        </mxCell>
        <mxCell id="Rpazg1jltuSnN0Y31uOU-10" value="Myonardo" style="rounded=0;whiteSpace=wrap;html=1;fontColor=#000000;strokeColor=#1A1A1A;fillColor=#FFFFFF;" vertex="1" parent="1">
          <mxGeometry x="339.5" y="97" width="120" height="60" as="geometry" />
        </mxCell>
        <mxCell id="Rpazg1jltuSnN0Y31uOU-13" value="" style="image;html=1;image=img/lib/clip_art/computers/Server_Tower_128x128.png;fontColor=#000000;strokeColor=#1A1A1A;fillColor=#FFFFFF;" vertex="1" parent="1">
          <mxGeometry x="485.5" y="55" width="80" height="80" as="geometry" />
        </mxCell>
        <mxCell id="Rpazg1jltuSnN0Y31uOU-17" value="Cloud" style="html=1;strokeColor=none;fillColor=#0079D6;labelPosition=center;verticalLabelPosition=middle;verticalAlign=top;align=center;fontSize=12;outlineConnect=0;spacingTop=-6;fontColor=#FFFFFF;sketch=0;shape=mxgraph.sitemap.cloud;dashed=1;" vertex="1" parent="1">
          <mxGeometry x="730" y="344" width="120" height="70" as="geometry" />
        </mxCell>
        <mxCell id="Rpazg1jltuSnN0Y31uOU-25" value="Unrestriced Read/Write" style="text;html=1;strokeColor=none;fillColor=none;align=center;verticalAlign=middle;whiteSpace=wrap;rounded=0;dashed=1;fontColor=#000000;" vertex="1" parent="1">
          <mxGeometry x="292.25" y="263" width="60" height="30" as="geometry" />
        </mxCell>
        <mxCell id="Rpazg1jltuSnN0Y31uOU-27" style="edgeStyle=orthogonalEdgeStyle;rounded=0;orthogonalLoop=1;jettySize=auto;html=1;fontColor=#000000;entryX=0.5;entryY=1;entryDx=0;entryDy=0;" edge="1" parent="1" source="Rpazg1jltuSnN0Y31uOU-26">
          <mxGeometry relative="1" as="geometry">
            <mxPoint x="404" y="810.9999999999998" as="targetPoint" />
          </mxGeometry>
        </mxCell>
        <mxCell id="Rpazg1jltuSnN0Y31uOU-26" value="Visual" style="rounded=0;whiteSpace=wrap;html=1;fontColor=#000000;strokeColor=#1A1A1A;fillColor=#FFFFFF;" vertex="1" parent="1">
          <mxGeometry x="344" y="906.12" width="120" height="60" as="geometry" />
        </mxCell>
        <mxCell id="Rpazg1jltuSnN0Y31uOU-29" value="" style="endArrow=classic;html=1;rounded=0;fontColor=#FFFFFF;exitX=0.5;exitY=0;exitDx=0;exitDy=0;entryX=0.5;entryY=1;entryDx=0;entryDy=0;entryPerimeter=0;" edge="1" parent="1" target="Rpazg1jltuSnN0Y31uOU-1">
          <mxGeometry width="50" height="50" relative="1" as="geometry">
            <mxPoint x="404" y="705.9999999999998" as="sourcePoint" />
            <mxPoint x="78" y="765" as="targetPoint" />
            <Array as="points">
              <mxPoint x="404" y="647" />
              <mxPoint x="138" y="647" />
            </Array>
          </mxGeometry>
        </mxCell>
        <mxCell id="Rpazg1jltuSnN0Y31uOU-30" value="" style="endArrow=classic;html=1;rounded=0;fontColor=#FFFFFF;entryX=0.5;entryY=1;entryDx=0;entryDy=0;entryPerimeter=0;dashed=1;exitX=0.5;exitY=0;exitDx=0;exitDy=0;" edge="1" parent="1" target="Rpazg1jltuSnN0Y31uOU-5">
          <mxGeometry width="50" height="50" relative="1" as="geometry">
            <mxPoint x="404" y="705.9999999999998" as="sourcePoint" />
            <mxPoint x="78" y="765" as="targetPoint" />
            <Array as="points">
              <mxPoint x="405" y="646" />
              <mxPoint x="322" y="646" />
            </Array>
          </mxGeometry>
        </mxCell>
        <mxCell id="Rpazg1jltuSnN0Y31uOU-32" value="" style="endArrow=classic;html=1;rounded=0;dashed=1;fontColor=#FFFFFF;entryX=0.5;entryY=1;entryDx=0;entryDy=0;entryPerimeter=0;exitX=0.5;exitY=0;exitDx=0;exitDy=0;" edge="1" parent="1" target="Rpazg1jltuSnN0Y31uOU-6">
          <mxGeometry width="50" height="50" relative="1" as="geometry">
            <mxPoint x="404" y="705.9999999999998" as="sourcePoint" />
            <mxPoint x="227" y="731" as="targetPoint" />
            <Array as="points">
              <mxPoint x="404" y="648" />
              <mxPoint x="513" y="648" />
            </Array>
          </mxGeometry>
        </mxCell>
        <mxCell id="19KP8P0Yi1cKVAYCAD_i-1" value="" style="image;html=1;image=img/lib/clip_art/computers/Server_Tower_128x128.png;fontColor=#000000;strokeColor=#1A1A1A;fillColor=#FFFFFF;" vertex="1" parent="1">
          <mxGeometry x="775" y="444" width="80" height="80" as="geometry" />
        </mxCell>
        <mxCell id="19KP8P0Yi1cKVAYCAD_i-3" value="optional:" style="text;html=1;strokeColor=none;fillColor=none;align=center;verticalAlign=middle;whiteSpace=wrap;rounded=0;fontColor=#000000;" vertex="1" parent="1">
          <mxGeometry x="715" y="469" width="60" height="30" as="geometry" />
        </mxCell>
        <mxCell id="G2x4mGEk5nUD5AReeRei-7" value="" style="shape=cylinder3;whiteSpace=wrap;html=1;boundedLbl=1;backgroundOutline=1;size=15;fontColor=#000000;strokeColor=#1A1A1A;fillColor=#FFFFFF;" vertex="1" parent="1">
          <mxGeometry x="367" y="708" width="78.75" height="105" as="geometry" />
        </mxCell>
      </root>
    </mxGraphModel>
  </diagram>
</mxfile>
